<svg xmlns="http://www.w3.org/2000/svg" viewBox="10 190 470 100">
    <defs>
        <clipPath id="clip-path">
            <circle cx="243.13" cy="243.13" r="226.65" style="fill:none"/>
        </clipPath>
    </defs>
    <g id="Layer_2">
        <g id="Layer_1-2">
            <g style="clip-path:url(#clip-path)">
                <circle cx="243.13" cy="243.13" r="226.65" style="fill:#fce3c3"/>
                <path d="M414,350a58,58,0,0,0-69.93-56.68c-4.66-23.36-.63-51.83.51-69.09,2.66-40,1.37-92-33.6-120.71C290.72,87,259.45,82.39,234.42,91.42c-28.57,10.32-45.84,36.66-54,63.1-5.22,16.94-7.05,34.41-11.51,51.23a24.59,24.59,0,0,0-34.31,16.63,60.57,60.57,0,0,0-64.74,80.4A56.18,56.18,0,0,0,90.76,406.51,58.82,58.82,0,0,0,148,451.87c1.22,0,2.42-.05,3.62-.12a64.07,64.07,0,0,0,116.58,5.69,64.06,64.06,0,0,0,100.08-50.77A57.94,57.94,0,0,0,414,350Z"
                      style="fill:#602826"/>
                <polygon
                        points="346.67 1483 354.96 1464.58 347.59 1312.63 415.33 1312.63 401.01 1462.74 414.82 1475.63 454.42 1506.02 379.31 1506.02 350.35 1501.42 346.67 1483"
                        style="fill:#ffcfca"/>
                <path d="M491.4,1521.22a7.76,7.76,0,0,0-1.23-2.82c-2.52-3.57-7.74-5.07-11.34-7.18l-3.67-2.14-15.3-8.92L432.32,1483l-30.39-21.18-47.89.92-8,17.89c-2.43,5.25-3.66,9.12-6.08,14.36a30.62,30.62,0,0,0-3.05,8.92,10.72,10.72,0,0,0-.1,2.34,14.9,14.9,0,0,0,1.94,6.41,19.19,19.19,0,0,0,7.79,7.6c4.15,2.16,8.93,2.71,13.59,3.23,29.22,3.19,58.43,6.43,87.77,8.21,10.25.63,21.05,2.07,31.29.94C485.7,1531.94,493.15,1529.14,491.4,1521.22Z"
                      style="fill:#602826"/>
                <polygon
                        points="151.58 1474.95 160.4 1456.78 157.37 1304.67 225.08 1306.61 206.47 1456.25 219.91 1469.53 258.63 1501.04 183.55 1498.9 154.74 1493.47 151.58 1474.95"
                        style="fill:#ffcfca"/>
                <path d="M295.17,1517.29a8,8,0,0,0-1.16-2.85c-2.41-3.65-7.59-5.29-11.13-7.5l-3.6-2.24-15-9.36-27-17.94-29.78-22-47.89-.45-8.47,17.66c-2.58,5.17-3.92,9-6.49,14.18-1.39,2.82-2.84,5.75-3.3,8.83a11.28,11.28,0,0,0-.17,2.33,15,15,0,0,0,1.76,6.47,19.25,19.25,0,0,0,7.57,7.82c4.09,2.28,8.85,3,13.49,3.62,29.12,4,58.22,8.09,87.5,10.7,10.23.93,21,2.68,31.25,1.84C289.16,1527.85,296.69,1525.26,295.17,1517.29Z"
                      style="fill:#602826"/>
                <path d="M544.25,841.07a135.81,135.81,0,0,0,8.87-12.15s0,0,0,0c.23-.32.44-.65.65-1q3.33-5.2,6.17-10.7c-.53-.93-1.07-1.85-1.6-2.77-2.42-4.24-4.71-8.56-7-12.91-.63,2-1.11,4-1.41,4.74q-1.51,3.94-3.24,7.8a151.48,151.48,0,0,1-8.57,16.36c-1.52,2.5-3.17,5.16-3.14,8.1a5.21,5.21,0,0,0,.28,1.66,6.1,6.1,0,0,0,1.73,2.74l.19.16a3.6,3.6,0,0,0,.4.28,3.72,3.72,0,0,0,2.85.6,3.81,3.81,0,0,0,.45-.13h0a6.38,6.38,0,0,0,2.55-1.87C543.74,841.69,544,841.38,544.25,841.07Z"
                      style="fill:#ffcfca"/>
                <path d="M537.62,843.38a3.6,3.6,0,0,1-.4-.28l-.19-.16a6.1,6.1,0,0,1-1.73-2.74l1.51-2.22,9.67-14.22c.73-1.07,2.24-4.63,3.79-4.62,2.41,0,2,4.13,1.51,5.5a12.26,12.26,0,0,1-1.4,2.43C546.5,832.79,542.56,838.57,537.62,843.38Z"
                      style="fill:#f9bfbb"/>
                <path d="M544.86,850.53c.63-.78,1.26-1.57,1.88-2.36q1.89-2.4,3.68-4.91,3.06-4.29,5.78-8.82c1.41-2.33,2.76-4.71,4-7.12.9-1.71,1.75-3.44,2.57-5.18q-2.24-3.84-4.45-7.69c-1.54-2.7-3-5.43-4.48-8.18-1.53,2.61-2.73,8-3.28,9.46-.37,1-.75,1.92-1.13,2.87a151.91,151.91,0,0,1-10.68,21.3c-.6,1-1.22,2-1.74,3a11,11,0,0,0-1.4,5.06c0,2.94,2.57,6,5.45,5.44a5.93,5.93,0,0,0,3-2C544.35,851.14,544.62,850.83,544.86,850.53Z"
                      style="fill:#ffcfca"/>
                <path d="M546.74,848.17a63.74,63.74,0,0,1,2-8.16c2.14-6.74,5.7-13,7.41-19.87l-.06.91a.79.79,0,0,1,.48-.2,2,2,0,0,1,1.55,1.1,16.21,16.21,0,0,1,2.14,5.37c-1.26,2.41-2.61,4.79-4,7.12q-2.72,4.53-5.78,8.82Q548.64,845.76,546.74,848.17Z"
                      style="fill:#f9bfbb"/>
                <path d="M555.62,863.86c.35-.57.65-1.16.94-1.75a92.14,92.14,0,0,0,5-12.29,167.54,167.54,0,0,0,4.82-19.05l.36-1.88q-4.23-7.2-8.38-14.44c-1.4-2.45-2.75-4.93-4.08-7.42a6.57,6.57,0,0,0-.51,1.24,19.73,19.73,0,0,0-.28,6.6,86.22,86.22,0,0,1-.15,11.92c-.05.7-.11,1.41-.2,2.12,0,0,0,0,0,0a87.38,87.38,0,0,1-2.32,12.93c-.12.47-.24.94-.38,1.41-1.56,5.74-3.52,11.47-3.4,17.41.05,2.51.91,5.52,3.35,6.13a4.38,4.38,0,0,0,3.86-1.21A8.65,8.65,0,0,0,555.62,863.86Z"
                      style="fill:#ffcfca"/>
                <path d="M566.72,828.89q-4.23-7.2-8.38-14.44c-2.42-4.24-4.71-8.56-7-12.91-.63,2-1.11,4-1.41,4.74-.62,1.6-1.27,3.19-1.93,4.77,3.67,6.54,6.05,14,8.25,21,1.35,4.34,2.52,8.73,3.59,13.15.54,1.55,1.08,3.1,1.66,4.63a167.54,167.54,0,0,0,4.82-19.05Z"
                      style="fill:#f9bfbb;opacity:0.30000000000000004"/>
                <path d="M67.48,862.51a70.29,70.29,0,0,0,2,7c2,6.17,4.28,12.26,6.25,18.44a28.07,28.07,0,0,1,1.69,8.21,10.36,10.36,0,0,1-2.89,7.65c-2,1.92-5.41,2.53-7.74,1-2-1.39-2.82-4-3.47-6.35L60.76,889c-1.15-4.23-2.3-8.45-3.25-12.72-1.93-8.67-3-18,.21-26.25,1-2.63,7.34-10.5,9.24-4.38.74,2.36-.35,5.58-.37,8A40,40,0,0,0,67.48,862.51Z"
                      style="fill:#f4b9b8"/>
                <path d="M63.83,868a71,71,0,0,0,2,7c2,6.16,4.28,12.25,6.26,18.43a28.12,28.12,0,0,1,1.68,8.22,10.3,10.3,0,0,1-2.89,7.64c-2,1.92-5.41,2.54-7.73,1-2-1.39-2.83-4-3.48-6.35l-2.55-9.38c-1.14-4.22-2.29-8.45-3.24-12.72-1.94-8.67-3-18,.2-26.25,1-2.62,7.35-10.5,9.25-4.38.73,2.36-.36,5.58-.38,8A40.11,40.11,0,0,0,63.83,868Z"
                      style="fill:#f9bfbb"/>
                <path d="M585.29,855.47q-8.68-21.75-17.38-43.51c-5.55-13.91-10.4-25.89-17.71-39-3-5.38-7.1-12.43-10.5-17.77l-48.81-89.78L460,608.61c-6.76-12.43-13.54-24.91-18.69-38.09-6.38-16.34-10.18-33.56-13.64-50.76-7.09-35.3-12.87-71.06-24.85-105-9.11-25.86-22.14-50.95-42.06-69.79-29.54-27.94-71.12-38.64-111-35.93a169.1,169.1,0,0,0-20.55,2.66A172,172,0,0,0,176,331.52c-17.06,9.82-31,21.86-42,38.22a162.42,162.42,0,0,0-9.46,16c-10.86,20.84-17.93,43.4-26.77,65.17C82,489.57,59.51,526.18,52.2,567.28,44.6,610,63.15,713.37,63,773.88c-1.21,23-9.68,52.29-11.71,65-1.58,10-3.25,20.4-2.17,30.54,1.16,10.75,4,21.15,6.69,31.59a13.5,13.5,0,0,0,1.83,4.68c1.79,2.46,5.91,3.13,7.83.46,4.18-5.78,1.91-14.4.49-20.79-1.33-6-3-11.9-3.33-18s1.24-11.44,3.61-16.92c1.72-3.94,3.26-7.94,5.07-11.87.5-1.07,1-2.19,1.63-3.24.22-.4.46-.79.71-1.18a11.81,11.81,0,0,1,4.75-4.5c1.7-.79,4.5-1.34,6.27-.42,1.92,1,1.84,3.5,2,5.35a27.3,27.3,0,0,1-.4,6.57A60.59,60.59,0,0,0,85.13,850a16.29,16.29,0,0,0,.13,2.42,15.92,15.92,0,0,0,.37,1.9C87.43,861,96.5,867,99.94,858a26.55,26.55,0,0,0,1.27-6c1.38-9.72,4.78-19.17,4.39-29a170.62,170.62,0,0,0-2.15-18.71c-1.58-10.35-6.19-25.43-7.27-30.4,6.44-61.7,9.69-114.12,13.24-175.59.38-6.51.77-13.09,2.62-19.34,2.38-8,7-15.07,11.6-22.05q42.12-64.42,80-131.46c8.83-15.63,17.74-32.32,17.34-50.26,23.58,17.13,56.1,21.15,83.14,10.26,33.67,75.45,49.38,158.63,89.75,230.72C426.26,674,474.24,719.49,513.36,773c1.41,1.93.79,7.74.92,10.21.43,8-.24,16,.74,24a111.94,111.94,0,0,0,5.57,23.67c1.23,3.47,4.57,6.65,8.11,3.54a4.22,4.22,0,0,0,.91-.76c3.5-3.72,3.52-8.81,3.29-13.6-.24-5.46,0-10.63,2.42-15.64a4.9,4.9,0,0,1,3.21-2.92,5.31,5.31,0,0,1,2.69.33,14.87,14.87,0,0,1,6.9,5,26.41,26.41,0,0,1,2.51,3.81c.72,1.27,1.36,2.6,2,3.93.78,1.66,1.51,3.33,2.27,4.91.16.32.31.64.47.95l.43.86,2.81,5.56c1.69,3.38,3.4,6.75,5.1,10.12q2.22,4.42,4.45,8.83c2.6,5.15,5.38,10.91,10,14.56C581.65,863.06,587.19,860.25,585.29,855.47Z"
                      style="fill:#ffcfca"/>
                <path d="M86.29,846.18c-.43,1.26-.83,2.55-1.16,3.85a60.59,60.59,0,0,1,1.16-8.89,27.3,27.3,0,0,0,.4-6.57c-.16-1.85-.08-4.36-2-5.35-1.77-.92-4.57-.37-6.27.42a11.81,11.81,0,0,0-4.75,4.5c-.25.39-.49.78-.71,1.18.39-1.18.82-2.34,1.31-3.48a14.65,14.65,0,0,1,4.52-6.32c2.12-1.53,5.16-2.06,7.38-.66C88,826,89,828.27,89.3,830.44,90.12,835.77,88,841.07,86.29,846.18Z"
                      style="fill:#f9bfbb"/>
                <path d="M302.76,327.79c-4.7,2.89-10.39,3.54-15.87,4.11A136.36,136.36,0,0,1,267,333c-12.94-.52-24.68-5.12-37-9.24.22-7.46.41-14.92.62-22.39a278,278,0,0,0-.16-28c-.21-2.86-.49-5.71-.86-8.54-.87-7.07-2.13-14.08-3.4-21.1q-1.56-8.64-3.11-17.31c3.32,3.22,6.49,4.9,10.57,7.15,17.17,9.48,34.7,18.3,52.33,26.88,5.32,2.58,10.68,5.17,16.42,6.57l.15,32.7Z"
                      style="fill:#ffcfca"/>
                <path d="M302.62,299.76a200.39,200.39,0,0,1-56.27-23.82c-5.52-3.43-11.24-7.11-16.69-11.07-.87-7.07-2.13-14.08-3.4-21.1q-1.56-8.64-3.11-17.31c3.32,3.22,6.49,4.9,10.57,7.15,17.17,9.48,34.7,18.3,52.33,26.88,5.32,2.58,10.68,5.17,16.42,6.57Z"
                      style="fill:#f9bfbb"/>
                <path d="M336.55,174.89A135,135,0,0,0,332.78,161a73.88,73.88,0,0,0-26.25-36.55c-23.87-17.25-58.07-14.3-78.43,6.76a61.44,61.44,0,0,0-11.68,17c-7.11,15.31-8,32-4.89,48.19a125.74,125.74,0,0,0,15.89,40.54,103.68,103.68,0,0,0,16.15,20.91,76.41,76.41,0,0,0,12,9.57,60.83,60.83,0,0,0,28.84,10,48.07,48.07,0,0,0,26.94-6.22c9.06-5.27,14.71-13.64,18.86-22.88C340.39,225.51,341.79,199.24,336.55,174.89Z"
                      style="fill:#ffcfca"/>
                <path d="M231.86,232.15a28.75,28.75,0,0,1-28.29-2.66,28.26,28.26,0,0,1-11.48-21.43,26.86,26.86,0,0,1,.19-4.56,20.53,20.53,0,0,1,2.46-7.59,17.65,17.65,0,0,1,16.9-8.17,20.38,20.38,0,0,1,15.47,11.11l1.82,12.81Z"
                      style="fill:#ffcfca"/>
                <path d="M310.09,116.18c-7.74,22-23.9,40.53-43.67,52.84s-43,18.58-66.24,19.79c-1.65.09,3.14-30.63,4-33.57a72.66,72.66,0,0,1,28.51-38.8,70.76,70.76,0,0,1,6.3-3.81,72.42,72.42,0,0,1,44.09-7.52,54.65,54.65,0,0,1,17.71,5.39C301.89,111.06,310.56,114.85,310.09,116.18Z"
                      style="fill:#602826"/>
                <path d="M344.18,566.35c4.37-34.73,7.67-69.38,14.7-103.72,6.24-30.46,13.37-62.7,1.79-92.73a83,83,0,0,0-16.85-13.16c-52-32.08-117.28-28.8-174.93-8.55-3.07,47.69,3.13,95.59,7.13,143.35,1.2,6.85,2,13.76,2.86,20.67,5,43.2,7.75,86.61,10.66,130,1.38-.18,2.78-.31,4.21-.36,9.75-.33,19.45,1.29,29.07,2.9l74.25,12.43c9.6,1.6,19.24,3.23,28.68,5.52,5.54-24.9,11.44-49.74,17.32-74.56A148.5,148.5,0,0,1,344.18,566.35Z"
                      style="fill:#ffcfca"/>
                <path d="M404.69,1435.11l-53.41-5.82c-10.14-123.27-22.53-299.51-23-371.76-5-11.17-9.95-21-14.77-30-28.17-52.39-52.56-73.76-71.78-143.17-7.17-25.89-13.6-54-18.91-83.13C211.41,739,205.13,672.59,207.61,615c41.06,4,89,12.88,128.93,1.95,15,39.78,37.82,96.35,47.89,137.82,20.26,83.47,51.72,257.26,53.41,289.91C439.84,1083.2,418.13,1373.21,404.69,1435.11Z"
                      style="fill:#397272"/>
                <path d="M315.81,949.4q-.56,32.64-2,65.26c-.19,4-.09,8.53-.29,12.89-28.17-52.39-52.56-73.76-71.78-143.17-7.17-25.89-13.6-54-18.91-83.13,1.35-3.64,2.65-7.3,3.87-11,14.64-43.85,18.47-90.76,33.47-134.48A289.79,289.79,0,0,1,300,739.4C312.94,783.52,315.15,830,315.87,876Q316.43,912.67,315.81,949.4Z"
                      style="fill:#326b69"/>
                <path d="M213,1424.19a401.77,401.77,0,0,0-57-4.61c-11-111.56,2.76-386.92,2.76-386.92s-32.31-95.21-35-201.21c-.43-17.16-2.89-69.61,8.29-114.53,14.74-59.21,38.68-85.47,54.34-109.73,49.73,13.59,102.22,17.47,150.11,9.71C326.12,683.34,313.05,793.58,302.62,860c-22.6,144.11-39.44,274-63.7,417.84C231.55,1321.55,222.34,1375.9,213,1424.19Z"
                      style="fill:#397272"/>
                <path d="M425.5,470.16a68.23,68.23,0,0,1-28.18,21c-3,1.25-5.77,2.29-8.36,3.16-10.8,3.68-18.79,4.57-32.16,6.05L346.07,607.83c-13.71,4.1-28,5.83-42.3,6.33-22.12.77-44.51-.59-66.56-2.39-20.34-1.66-41-5-59.38-14.31q.72-39-1.59-78-.93-16.28-2.37-32.52c0-.12,0-.25,0-.38-2.67,3.82-5.41,6.75-7.63,10.85a347.64,347.64,0,0,1-70.38-61.9c.45-1.07.89-2.14,1.33-3.24a140.45,140.45,0,0,1,9.07-18.11c7.33-12.65,14.78-25.29,22.7-37.6,1.47-2.29,3-4.56,4.54-6.79,10.45-15.07,22.93-28.8,38-39.33a124.72,124.72,0,0,1,25.88-13.88c4.74-1.86,31.15-9.11,31.43-8.65,3.22,5.32,6.48,7.4,12.41,9.23,14.27,4.41,29.56,4.8,44.37,2.85,8.23-1.09,19.66-8.4,19.66-8.4s25.78,7.37,39,15.32a131.41,131.41,0,0,1,16.26,11.78,135.65,135.65,0,0,1,36.07,47.61c8.79,18.89,14.39,39,20.93,58.76C420.23,453.38,423,461.76,425.5,470.16Z"
                      style="fill:#f9713d"/>
                <path d="M362.58,449a111.84,111.84,0,0,0,.14-14.53,100.87,100.87,0,0,0-2.94-16.85,294.15,294.15,0,0,0-11.21-36c1,1.92,2.09,3.79,3.18,5.63,7.9,13.38,15.38,27.61,17.78,43.49,1.83,12.1.61,24.73,3.47,36.57a54.46,54.46,0,0,0,15.27,26.43l.69.63c-10.8,3.68-18.79,4.57-32.16,6.05C359.54,482.22,361.54,467.3,362.58,449Z"
                      style="fill:#ef5d30"/>
                <path d="M194.7,457.69c-4.12,21.14-8.48,42.87-18.46,61.75q-.93-16.28-2.37-32.52C182.56,478.46,191.59,469.4,194.7,457.69Z"
                      style="fill:#ef5d30"/>
                <path d="M270.18,171.25a20.77,20.77,0,0,1,3.86.08l6.83.55c.76.06,1.7,0,2-.66a1.34,1.34,0,0,0,0-1.09c-.55-1.31-2.16-1.76-3.58-1.94a20.62,20.62,0,0,0-10.49,1.19c-.64.27-4.3,1.94-4.05,2.8S269.44,171.33,270.18,171.25Z"
                      style="fill:#211a17"/>
                <path d="M319.83,169.71a20.74,20.74,0,0,0-3.85.36l-6.77,1.05c-.75.12-1.69.15-2.07-.51a1.33,1.33,0,0,1-.05-1.09c.46-1.35,2-1.91,3.43-2.19a20.52,20.52,0,0,1,10.55.41c.66.22,4.44,1.62,4.24,2.5S320.57,169.73,319.83,169.71Z"
                      style="fill:#211a17"/>
                <path d="M315.78,229.58c-2.55,6.64-7.24,11.22-12.94,11.69-5.49.45-10.69-3-14.29-8.75A34,34,0,0,1,283.82,218l1.08-.09,31.71-2.61,1.17-.1A33.93,33.93,0,0,1,315.78,229.58Z"
                      style="fill:#ce7872"/>
                <path d="M316.61,215.29a19.58,19.58,0,0,1-31.71,2.61Z" style="fill:#fff"/>
                <path d="M315.78,229.58c-2.55,6.64-7.24,11.22-12.94,11.69-5.49.45-10.69-3-14.29-8.75a33.83,33.83,0,0,1,4.86-2.68,26.56,26.56,0,0,1,22.37-.26Z"
                      style="fill:#ea8c8b"/>
                <path d="M282.74,191.78c.13,4.32-2.24,7.9-5.29,8s-5.63-3.33-5.76-7.66,2.24-7.89,5.29-8S282.61,187.46,282.74,191.78Z"
                      style="fill:#211a17"/>
                <path d="M278.74,189.28a1.38,1.38,0,0,0,.08,2.76A1.38,1.38,0,0,0,278.74,189.28Z" style="fill:#fff"/>
                <path d="M312.2,190.9c.13,4.32,2.7,7.75,5.75,7.65s5.42-3.67,5.29-8-2.71-7.75-5.76-7.66S312.07,186.57,312.2,190.9Z"
                      style="fill:#211a17"/>
                <path d="M319.35,187.23a1.38,1.38,0,0,0,.09,2.76A1.38,1.38,0,0,0,319.35,187.23Z" style="fill:#fff"/>
                <path d="M302.76,200.61a5.07,5.07,0,0,0-6.3.17l4.92,8.51a3.76,3.76,0,0,0,3-2.51A5.49,5.49,0,0,0,302.76,200.61Z"
                      style="fill:#ce7872"/>
                <ellipse cx="260.1" cy="214.87" rx="14.73" ry="11.97" transform="translate(-14.25 18.51) rotate(-3.97)"
                         style="fill:#f9bfbb"/>
                <ellipse cx="329.17" cy="207.5" rx="8.27" ry="6.72" transform="translate(-13.57 23.27) rotate(-3.97)"
                         style="fill:#f9bfbb"/>
            </g>
            <path d="M243.07,485.91a1.29,1.29,0,1,1,0-2.58c2.28,0,4.58,0,6.86-.1a1.29,1.29,0,1,1,.08,2.58C247.7,485.88,245.37,485.91,243.07,485.91Zm-6.9-.09h0c-2.31-.07-4.65-.16-6.94-.29a1.29,1.29,0,0,1,.15-2.58c2.27.13,4.57.23,6.86.29a1.29,1.29,0,0,1,0,2.58Zm20.69-.3a1.29,1.29,0,0,1-.07-2.58c2.28-.13,4.58-.29,6.85-.49a1.3,1.3,0,0,1,1.39,1.18,1.28,1.28,0,0,1-1.17,1.39c-2.29.2-4.62.37-6.92.5Zm-34.47-.47h-.1c-2.29-.19-4.62-.42-6.91-.68a1.29,1.29,0,1,1,.29-2.56c2.27.26,4.57.48,6.83.67a1.29,1.29,0,0,1-.11,2.58Zm48.22-.7a1.29,1.29,0,0,1-.14-2.58c2.26-.25,4.55-.55,6.81-.87a1.29,1.29,0,1,1,.36,2.55c-2.28.33-4.6.63-6.88.89Zm-61.93-.85h-.18c-2.28-.33-4.58-.69-6.85-1.08a1.29,1.29,0,1,1,.43-2.54c2.25.39,4.53.74,6.78,1.06a1.29,1.29,0,0,1-.18,2.57Zm75.59-1.11a1.29,1.29,0,0,1-.21-2.56c2.24-.38,4.51-.81,6.74-1.26a1.29,1.29,0,1,1,.51,2.53c-2.26.46-4.55.88-6.82,1.27A.78.78,0,0,1,284.27,482.39Zm-89.19-1.22a1.07,1.07,0,0,1-.25,0c-2.25-.45-4.54-.94-6.78-1.46a1.29,1.29,0,1,1,.58-2.51c2.22.51,4.48,1,6.7,1.44a1.29,1.29,0,0,1-.25,2.56Zm102.72-1.51a1.29,1.29,0,0,1-.29-2.55c2.22-.51,4.46-1.07,6.66-1.64a1.29,1.29,0,1,1,.66,2.49c-2.23.59-4.49,1.15-6.74,1.67A1.43,1.43,0,0,1,297.8,479.66Zm-116.16-1.6a1.24,1.24,0,0,1-.33,0c-2.24-.58-4.49-1.21-6.69-1.85a1.29,1.29,0,0,1,.73-2.48c2.17.64,4.4,1.26,6.61,1.84a1.29,1.29,0,0,1-.32,2.53Zm129.51-1.9a1.29,1.29,0,0,1-.37-2.53c2.19-.64,4.4-1.32,6.56-2a1.29,1.29,0,0,1,.8,2.46c-2.19.71-4.42,1.4-6.63,2.05A1.49,1.49,0,0,1,311.15,476.16Zm-142.76-2a1.39,1.39,0,0,1-.4-.06c-2.2-.72-4.42-1.47-6.59-2.25a1.28,1.28,0,0,1-.78-1.64,1.31,1.31,0,0,1,1.65-.79c2.15.77,4.34,1.52,6.52,2.22a1.29,1.29,0,0,1,.83,1.63A1.31,1.31,0,0,1,168.39,474.19Zm155.88-2.3a1.29,1.29,0,0,1-.43-2.5c2.14-.77,4.31-1.58,6.43-2.41a1.29,1.29,0,1,1,.93,2.41c-2.14.83-4.32,1.65-6.49,2.43A1.35,1.35,0,0,1,324.27,471.89Zm-168.92-2.35a1.31,1.31,0,0,1-.47-.09c-2.15-.83-4.32-1.71-6.44-2.61a1.29,1.29,0,1,1,1-2.38c2.1.89,4.25,1.76,6.38,2.59a1.29,1.29,0,0,1-.47,2.49Zm181.76-2.65a1.29,1.29,0,0,1-.51-2.48c2.1-.89,4.21-1.82,6.27-2.76a1.29,1.29,0,0,1,1.07,2.35c-2.08.95-4.21,1.89-6.33,2.78A1.33,1.33,0,0,1,337.11,466.89ZM142.6,464.16a1.24,1.24,0,0,1-.53-.12c-2.1-1-4.21-2-6.28-3a1.29,1.29,0,1,1,1.14-2.32c2,1,4.14,2,6.21,2.95a1.29,1.29,0,0,1-.54,2.47Zm207-3a1.29,1.29,0,0,1-.57-2.45c2-1,4.08-2,6.09-3.11a1.29,1.29,0,1,1,1.21,2.28c-2,1.08-4.11,2.14-6.16,3.15A1.31,1.31,0,0,1,349.62,461.16ZM130.2,458.05a1.27,1.27,0,0,1-.6-.15c-2-1.08-4.09-2.2-6.1-3.34a1.29,1.29,0,1,1,1.27-2.24c2,1.12,4,2.23,6,3.3a1.29,1.29,0,0,1-.6,2.43Zm231.59-3.32a1.3,1.3,0,0,1-.64-2.42c2-1.12,4-2.28,5.92-3.45a1.29,1.29,0,1,1,1.33,2.2c-2,1.19-4,2.36-6,3.5A1.29,1.29,0,0,1,361.79,454.73Zm-243.62-3.49a1.35,1.35,0,0,1-.67-.18c-2-1.19-4-2.43-5.89-3.68a1.29,1.29,0,1,1,1.39-2.17c1.92,1.24,3.89,2.46,5.83,3.64a1.29,1.29,0,0,1-.66,2.39Zm255.41-3.64a1.31,1.31,0,0,1-1.09-.59,1.29,1.29,0,0,1,.39-1.78c1.91-1.23,3.83-2.5,5.71-3.79a1.29,1.29,0,0,1,1.46,2.13c-1.9,1.3-3.85,2.59-5.77,3.83A1.29,1.29,0,0,1,373.58,447.6Zm-267-3.84a1.3,1.3,0,0,1-.73-.22c-1.9-1.31-3.81-2.65-5.67-4a1.29,1.29,0,1,1,1.52-2.09c1.84,1.35,3.73,2.68,5.61,4a1.29,1.29,0,0,1-.73,2.35ZM385,439.82a1.29,1.29,0,0,1-.76-2.33c1.85-1.35,3.7-2.73,5.49-4.12a1.29,1.29,0,0,1,1.57,2.05c-1.81,1.39-3.67,2.79-5.54,4.15A1.28,1.28,0,0,1,385,439.82ZM95.38,435.64a1.3,1.3,0,0,1-.79-.27c-1.81-1.41-3.64-2.86-5.43-4.32a1.3,1.3,0,0,1-.18-1.82,1.29,1.29,0,0,1,1.81-.18c1.77,1.45,3.58,2.89,5.38,4.27a1.3,1.3,0,0,1-.79,2.32Zm300.48-4.24a1.29,1.29,0,0,1-.81-2.29c1.77-1.45,3.53-2.94,5.24-4.42a1.29,1.29,0,1,1,1.69,1.95c-1.73,1.5-3.51,3-5.3,4.46A1.28,1.28,0,0,1,395.86,431.4ZM84.7,426.89a1.27,1.27,0,0,1-.85-.32c-1.74-1.5-3.48-3.06-5.17-4.62a1.29,1.29,0,0,1,1.74-1.9c1.68,1.54,3.4,3.08,5.12,4.57a1.29,1.29,0,0,1,.13,1.82A1.26,1.26,0,0,1,84.7,426.89Zm321.59-4.53a1.29,1.29,0,0,1-.88-2.24c1.69-1.54,3.37-3.13,5-4.71a1.3,1.3,0,0,1,1.83,0,1.28,1.28,0,0,1,0,1.82c-1.64,1.6-3.34,3.2-5,4.76A1.28,1.28,0,0,1,406.29,422.36ZM74.53,417.55a1.3,1.3,0,0,1-.9-.36c-1.65-1.61-3.3-3.26-4.9-4.91a1.29,1.29,0,1,1,1.85-1.79c1.59,1.63,3.22,3.26,4.85,4.85a1.29,1.29,0,0,1-.9,2.21Zm341.66-4.8a1.29,1.29,0,0,1-.93-2.19c1.59-1.63,3.18-3.31,4.72-5a1.29,1.29,0,0,1,1.9,1.75c-1.56,1.7-3.16,3.39-4.77,5A1.28,1.28,0,0,1,416.19,412.75ZM64.92,407.66a1.31,1.31,0,0,1-1-.42c-1.55-1.69-3.1-3.43-4.61-5.17a1.29,1.29,0,1,1,1.95-1.69c1.49,1.72,3,3.44,4.56,5.12a1.28,1.28,0,0,1-.94,2.16Zm360.6-5.07a1.23,1.23,0,0,1-.84-.32,1.29,1.29,0,0,1-.13-1.82c1.5-1.72,3-3.49,4.43-5.24a1.29,1.29,0,0,1,2,1.63c-1.45,1.77-3,3.56-4.47,5.31A1.3,1.3,0,0,1,425.52,402.59ZM55.88,397.24a1.3,1.3,0,0,1-1-.47c-1.45-1.77-2.9-3.6-4.31-5.43a1.29,1.29,0,1,1,2-1.57c1.39,1.8,2.83,3.61,4.27,5.36A1.3,1.3,0,0,1,56.7,397,1.27,1.27,0,0,1,55.88,397.24Zm378.39-5.33a1.27,1.27,0,0,1-.78-.27,1.29,1.29,0,0,1-.24-1.81c1.39-1.79,2.78-3.64,4.13-5.49a1.29,1.29,0,1,1,2.08,1.52c-1.36,1.87-2.76,3.74-4.16,5.55A1.3,1.3,0,0,1,434.27,391.91ZM47.45,386.33a1.27,1.27,0,0,1-1-.53c-1.36-1.86-2.7-3.76-4-5.66a1.29,1.29,0,0,1,2.13-1.46c1.28,1.88,2.61,3.76,4,5.6a1.29,1.29,0,0,1-1,2.05Zm395-5.58a1.31,1.31,0,0,1-.73-.23,1.29,1.29,0,0,1-.34-1.79c1.29-1.88,2.57-3.81,3.81-5.72a1.29,1.29,0,1,1,2.17,1.39c-1.25,1.94-2.55,3.89-3.85,5.79A1.29,1.29,0,0,1,442.41,380.75ZM39.66,375a1.26,1.26,0,0,1-1.08-.59c-1.25-1.92-2.48-3.9-3.67-5.87a1.29,1.29,0,0,1,2.2-1.34c1.19,1.95,2.41,3.91,3.63,5.82a1.28,1.28,0,0,1-1.08,2Zm410.23-5.83a1.35,1.35,0,0,1-.67-.18,1.3,1.3,0,0,1-.43-1.78c1.18-1.94,2.34-3.94,3.47-5.93a1.29,1.29,0,0,1,2.25,1.27c-1.14,2-2.32,4-3.51,6A1.3,1.3,0,0,1,449.89,369.13ZM32.53,363.18a1.29,1.29,0,0,1-1.12-.66c-1.13-2-2.25-4-3.33-6.07a1.29,1.29,0,0,1,2.28-1.2c1.07,2,2.17,4,3.29,6a1.28,1.28,0,0,1-.48,1.76A1.33,1.33,0,0,1,32.53,363.18Zm424.17-6.07a1.3,1.3,0,0,1-1.14-1.9c1.08-2,2.13-4.09,3.13-6.12a1.29,1.29,0,0,1,2.32,1.14c-1,2-2.08,4.14-3.16,6.19A1.3,1.3,0,0,1,456.7,357.11ZM26.09,351a1.3,1.3,0,0,1-1.16-.72c-1-2.06-2-4.16-3-6.25A1.29,1.29,0,0,1,24.31,343c1,2.07,1.93,4.14,2.94,6.18a1.3,1.3,0,0,1-.59,1.73A1.28,1.28,0,0,1,26.09,351Zm436.73-6.31a1.32,1.32,0,0,1-.54-.12,1.29,1.29,0,0,1-.63-1.71c1-2.08,1.88-4.2,2.77-6.29a1.29,1.29,0,1,1,2.38,1c-.9,2.11-1.84,4.26-2.81,6.37A1.28,1.28,0,0,1,462.82,344.7ZM20.36,338.5a1.29,1.29,0,0,1-1.19-.79c-.89-2.11-1.77-4.26-2.6-6.4a1.29,1.29,0,1,1,2.4-.94c.82,2.12,1.69,4.25,2.58,6.34a1.29,1.29,0,0,1-.69,1.69A1.24,1.24,0,0,1,20.36,338.5ZM468.21,332a1.35,1.35,0,0,1-.47-.09,1.29,1.29,0,0,1-.73-1.67c.83-2.14,1.64-4.31,2.41-6.45a1.29,1.29,0,0,1,2.43.87c-.78,2.16-1.59,4.35-2.44,6.52A1.27,1.27,0,0,1,468.21,332ZM15.35,325.67a1.28,1.28,0,0,1-1.21-.86c-.78-2.16-1.53-4.37-2.25-6.56a1.29,1.29,0,1,1,2.46-.8c.7,2.17,1.45,4.35,2.21,6.49a1.28,1.28,0,0,1-.78,1.65A1.31,1.31,0,0,1,15.35,325.67Zm457.51-6.75a1.32,1.32,0,0,1-.39-.06,1.29,1.29,0,0,1-.83-1.63c.7-2.16,1.38-4.37,2-6.56a1.29,1.29,0,0,1,2.48.73c-.65,2.21-1.34,4.44-2.05,6.63A1.3,1.3,0,0,1,472.86,318.92ZM11.08,312.55a1.29,1.29,0,0,1-1.24-.93c-.65-2.21-1.28-4.46-1.86-6.68a1.29,1.29,0,1,1,2.49-.66c.58,2.2,1.2,4.43,1.84,6.61a1.28,1.28,0,0,1-.87,1.6A1.13,1.13,0,0,1,11.08,312.55Zm465.67-6.87a1.86,1.86,0,0,1-.33,0,1.3,1.3,0,0,1-.92-1.58c.57-2.2,1.13-4.44,1.64-6.66a1.29,1.29,0,1,1,2.51.58c-.52,2.25-1.08,4.51-1.66,6.73A1.29,1.29,0,0,1,476.75,305.68ZM7.56,299.2a1.29,1.29,0,0,1-1.25-1c-.52-2.24-1-4.52-1.47-6.78a1.29,1.29,0,1,1,2.52-.51c.46,2.24,1,4.49,1.46,6.71a1.29,1.29,0,0,1-1,1.55Zm472.3-7a1.14,1.14,0,0,1-.26,0,1.3,1.3,0,0,1-1-1.52c.46-2.26.88-4.53,1.26-6.75a1.29,1.29,0,1,1,2.54.44c-.38,2.24-.81,4.54-1.27,6.82A1.28,1.28,0,0,1,479.86,292.23Zm-475-6.55a1.29,1.29,0,0,1-1.27-1.07c-.39-2.26-.76-4.57-1.09-6.85A1.29,1.29,0,1,1,5,277.39c.32,2.26.68,4.54,1.07,6.78a1.29,1.29,0,0,1-1,1.49Zm477.37-7.05H482a1.29,1.29,0,0,1-1.09-1.46c.32-2.27.61-4.56.87-6.81a1.29,1.29,0,0,1,2.56.29c-.26,2.28-.55,4.59-.88,6.89A1.28,1.28,0,0,1,482.2,278.63ZM2.87,272a1.29,1.29,0,0,1-1.28-1.15c-.26-2.27-.5-4.59-.69-6.9a1.29,1.29,0,0,1,2.57-.22c.19,2.28.42,4.58.68,6.83A1.29,1.29,0,0,1,3,272Zm480.88-7.1h-.11a1.3,1.3,0,0,1-1.18-1.4c.2-2.28.36-4.58.49-6.84a1.31,1.31,0,0,1,1.36-1.22,1.29,1.29,0,0,1,1.21,1.36c-.13,2.29-.29,4.61-.48,6.92A1.3,1.3,0,0,1,483.75,264.92ZM1.69,258.27A1.29,1.29,0,0,1,.4,257.05c-.13-2.29-.23-4.62-.3-6.93a1.29,1.29,0,0,1,2.58-.07c.07,2.28.17,4.58.3,6.86a1.29,1.29,0,0,1-1.22,1.36Zm482.84-7.12h0a1.29,1.29,0,0,1-1.25-1.33c.06-2.29.09-4.6.09-6.86v-.46a1.29,1.29,0,0,1,2.58,0V243c0,2.28,0,4.62-.1,6.93A1.29,1.29,0,0,1,484.53,251.15ZM1.29,244.47A1.29,1.29,0,0,1,0,243.18V243c0-2.23,0-4.49.09-6.71A1.32,1.32,0,0,1,1.42,235a1.28,1.28,0,0,1,1.25,1.32c-.06,2.2-.09,4.43-.09,6.64v.22A1.29,1.29,0,0,1,1.29,244.47Zm483.22-7.58a1.29,1.29,0,0,1-1.29-1.25c-.06-2.26-.17-4.57-.3-6.86a1.29,1.29,0,0,1,1.21-1.36,1.3,1.3,0,0,1,1.37,1.21c.13,2.31.23,4.65.3,6.93a1.29,1.29,0,0,1-1.25,1.33ZM1.67,230.68H1.59a1.29,1.29,0,0,1-1.21-1.36c.12-2.3.28-4.63.48-6.92a1.29,1.29,0,0,1,2.57.21c-.19,2.27-.35,4.58-.48,6.85A1.28,1.28,0,0,1,1.67,230.68Zm482-7.56a1.28,1.28,0,0,1-1.28-1.18c-.2-2.28-.43-4.58-.69-6.83a1.29,1.29,0,1,1,2.56-.3c.26,2.28.5,4.6.7,6.9a1.3,1.3,0,0,1-1.18,1.4ZM2.82,216.93H2.67a1.3,1.3,0,0,1-1.14-1.42c.26-2.3.56-4.61.88-6.89A1.29,1.29,0,1,1,5,209c-.31,2.24-.61,4.53-.86,6.8A1.3,1.3,0,0,1,2.82,216.93Zm479.31-7.52a1.3,1.3,0,0,1-1.28-1.11c-.32-2.26-.69-4.54-1.08-6.78a1.29,1.29,0,0,1,1.05-1.49,1.31,1.31,0,0,1,1.5,1.05c.39,2.26.76,4.57,1.09,6.85a1.29,1.29,0,0,1-1.1,1.46ZM4.75,203.27l-.22,0a1.29,1.29,0,0,1-1.05-1.49c.39-2.27.81-4.57,1.26-6.82a1.29,1.29,0,0,1,2.53.51c-.44,2.23-.86,4.5-1.25,6.74A1.3,1.3,0,0,1,4.75,203.27Zm475-7.46a1.29,1.29,0,0,1-1.27-1c-.45-2.22-.94-4.48-1.46-6.71a1.29,1.29,0,1,1,2.51-.58c.53,2.25,1,4.53,1.48,6.78a1.3,1.3,0,0,1-1,1.52ZM7.46,189.74a1,1,0,0,1-.29,0,1.28,1.28,0,0,1-1-1.54c.52-2.26,1.07-4.52,1.65-6.74a1.29,1.29,0,0,1,2.5.65c-.58,2.19-1.13,4.44-1.64,6.67A1.3,1.3,0,0,1,7.46,189.74Zm469.17-7.36a1.3,1.3,0,0,1-1.25-1c-.58-2.2-1.2-4.43-1.85-6.61a1.29,1.29,0,0,1,2.48-.73c.65,2.21,1.28,4.45,1.87,6.69a1.29,1.29,0,0,1-.92,1.57A1.26,1.26,0,0,1,476.63,182.38ZM11,176.38a1.12,1.12,0,0,1-.36,0,1.28,1.28,0,0,1-.88-1.6c.65-2.21,1.33-4.44,2-6.63a1.29,1.29,0,1,1,2.45.8c-.69,2.16-1.37,4.36-2,6.56A1.29,1.29,0,0,1,11,176.38Zm461.77-7.24a1.28,1.28,0,0,1-1.22-.89c-.71-2.16-1.46-4.34-2.23-6.49a1.29,1.29,0,1,1,2.43-.87c.78,2.17,1.54,4.38,2.25,6.56a1.3,1.3,0,0,1-.83,1.63A1.34,1.34,0,0,1,472.72,169.14ZM15.2,163.23A1.28,1.28,0,0,1,14,161.51c.77-2.18,1.59-4.38,2.42-6.52a1.29,1.29,0,0,1,2.41.93c-.83,2.13-1.63,4.3-2.4,6.46A1.3,1.3,0,0,1,15.2,163.23Zm452.86-7.08a1.29,1.29,0,0,1-1.2-.82c-.82-2.1-1.69-4.23-2.58-6.33a1.29,1.29,0,1,1,2.37-1c.9,2.12,1.78,4.28,2.61,6.4a1.28,1.28,0,0,1-.73,1.67A1.27,1.27,0,0,1,468.06,156.15ZM20.22,150.33a1.32,1.32,0,0,1-.51-.1,1.29,1.29,0,0,1-.68-1.69c.89-2.12,1.83-4.26,2.79-6.37a1.29,1.29,0,0,1,2.35,1.07c-1,2.09-1.88,4.2-2.77,6.3A1.26,1.26,0,0,1,20.22,150.33Zm442.46-6.84a1.29,1.29,0,0,1-1.17-.75c-.94-2.05-1.93-4.13-2.95-6.18a1.29,1.29,0,0,1,2.32-1.14c1,2.07,2,4.17,3,6.24a1.28,1.28,0,0,1-.63,1.71A1.32,1.32,0,0,1,462.68,143.49ZM26,137.75a1.28,1.28,0,0,1-.57-.13,1.3,1.3,0,0,1-.59-1.73c1-2.07,2.08-4.15,3.16-6.19a1.29,1.29,0,0,1,2.28,1.2c-1.07,2-2.12,4.08-3.12,6.13A1.3,1.3,0,0,1,26,137.75Zm430.62-6.6a1.3,1.3,0,0,1-1.14-.68c-1.06-2-2.17-4-3.29-6a1.29,1.29,0,0,1,2.24-1.28c1.13,2,2.25,4,3.33,6.07a1.28,1.28,0,0,1-.53,1.74A1.22,1.22,0,0,1,456.58,131.15ZM32.41,125.52a1.31,1.31,0,0,1-.63-.16,1.29,1.29,0,0,1-.49-1.76c1.13-2,2.31-4,3.51-6A1.29,1.29,0,1,1,37,118.93c-1.18,2-2.35,3.95-3.47,5.94A1.3,1.3,0,0,1,32.41,125.52Zm417.37-6.34a1.29,1.29,0,0,1-1.1-.62c-1.18-2-2.4-3.91-3.63-5.81a1.29,1.29,0,1,1,2.16-1.4c1.25,1.92,2.48,3.9,3.68,5.87a1.29,1.29,0,0,1-.44,1.77A1.26,1.26,0,0,1,449.78,119.18ZM39.55,113.69a1.27,1.27,0,0,1-.69-.21,1.28,1.28,0,0,1-.39-1.78c1.24-1.93,2.54-3.88,3.84-5.79a1.29,1.29,0,0,1,2.13,1.46c-1.29,1.89-2.57,3.81-3.8,5.73A1.3,1.3,0,0,1,39.55,113.69Zm402.76-6.09a1.27,1.27,0,0,1-1.06-.56c-1.29-1.86-2.62-3.75-4-5.59a1.29,1.29,0,1,1,2.08-1.52c1.36,1.86,2.71,3.77,4,5.65a1.28,1.28,0,0,1-1.06,2ZM47.36,102.29a1.26,1.26,0,0,1-.76-.25,1.28,1.28,0,0,1-.29-1.8c1.36-1.86,2.76-3.73,4.17-5.56a1.29,1.29,0,0,1,2,1.58c-1.4,1.81-2.78,3.66-4.12,5.5A1.31,1.31,0,0,1,47.36,102.29Zm386.83-5.82a1.27,1.27,0,0,1-1-.5c-1.39-1.79-2.82-3.6-4.28-5.37a1.29,1.29,0,0,1,2-1.63c1.47,1.79,2.92,3.61,4.32,5.42A1.3,1.3,0,0,1,435,96.2,1.32,1.32,0,0,1,434.19,96.47ZM55.79,91.35a1.24,1.24,0,0,1-.81-.29,1.28,1.28,0,0,1-.19-1.81c1.46-1.78,3-3.57,4.47-5.31a1.29,1.29,0,0,1,2,1.69c-1.49,1.72-3,3.49-4.42,5.25A1.29,1.29,0,0,1,55.79,91.35Zm369.65-5.54a1.26,1.26,0,0,1-1-.45c-1.5-1.72-3-3.44-4.58-5.11a1.29,1.29,0,1,1,1.9-1.75c1.56,1.69,3.12,3.43,4.62,5.17a1.29,1.29,0,0,1-.12,1.82A1.32,1.32,0,0,1,425.44,85.81ZM64.83,80.92a1.29,1.29,0,0,1-.95-2.16c1.55-1.69,3.16-3.39,4.76-5.05a1.29,1.29,0,0,1,1.85,1.8c-1.59,1.64-3.17,3.32-4.71,5A1.27,1.27,0,0,1,64.83,80.92ZM416.1,75.65a1.28,1.28,0,0,1-.92-.39c-1.6-1.64-3.24-3.27-4.86-4.84a1.29,1.29,0,0,1,1.8-1.86c1.64,1.6,3.29,3.25,4.91,4.9a1.3,1.3,0,0,1,0,1.83A1.29,1.29,0,0,1,416.1,75.65ZM74.44,71a1.29,1.29,0,0,1-.89-2.21c1.64-1.61,3.34-3.21,5-4.77a1.29,1.29,0,1,1,1.75,1.9c-1.68,1.54-3.35,3.13-5,4.72A1.29,1.29,0,0,1,74.44,71Zm331.76-5a1.33,1.33,0,0,1-.88-.34c-1.67-1.54-3.39-3.07-5.12-4.57a1.29,1.29,0,1,1,1.69-2c1.75,1.51,3.49,3.07,5.18,4.61a1.31,1.31,0,0,1,.08,1.83A1.34,1.34,0,0,1,406.2,66.05ZM84.6,61.69a1.26,1.26,0,0,1-1-.45,1.29,1.29,0,0,1,.13-1.82c1.73-1.51,3.52-3,5.29-4.47a1.29,1.29,0,0,1,1.64,2c-1.76,1.44-3.52,2.93-5.24,4.42A1.32,1.32,0,0,1,84.6,61.69ZM395.76,57a1.27,1.27,0,0,1-.82-.29c-1.76-1.44-3.57-2.88-5.38-4.27a1.29,1.29,0,0,1,1.58-2c1.83,1.41,3.66,2.86,5.44,4.31a1.29,1.29,0,0,1-.82,2.29ZM95.27,53a1.3,1.3,0,0,1-1-.5,1.28,1.28,0,0,1,.23-1.81c1.82-1.41,3.68-2.81,5.54-4.16a1.29,1.29,0,0,1,1.52,2.08c-1.84,1.34-3.69,2.73-5.49,4.12A1.27,1.27,0,0,1,95.27,53Zm289.55-4.37a1.28,1.28,0,0,1-.76-.25c-1.84-1.33-3.73-2.67-5.61-3.95a1.29,1.29,0,1,1,1.45-2.13c1.91,1.3,3.82,2.64,5.68,4a1.28,1.28,0,0,1,.28,1.8A1.27,1.27,0,0,1,384.82,48.58ZM106.41,44.83a1.29,1.29,0,0,1-.73-2.36c1.89-1.3,3.83-2.59,5.76-3.83a1.29,1.29,0,1,1,1.4,2.17c-1.91,1.23-3.83,2.51-5.7,3.79A1.34,1.34,0,0,1,106.41,44.83Zm267-4a1.26,1.26,0,0,1-.7-.2c-1.92-1.23-3.88-2.45-5.84-3.63a1.29,1.29,0,0,1,1.34-2.21c2,1.19,4,2.42,5.89,3.67a1.28,1.28,0,0,1,.39,1.78A1.26,1.26,0,0,1,373.42,40.78ZM118,37.36a1.29,1.29,0,0,1-.66-2.39c2-1.19,4-2.37,6-3.5a1.29,1.29,0,1,1,1.27,2.24c-2,1.12-4,2.29-5.91,3.46A1.26,1.26,0,0,1,118,37.36Zm243.6-3.71a1.19,1.19,0,0,1-.63-.17c-2-1.11-4-2.22-6-3.29a1.29,1.29,0,0,1,1.2-2.28c2.05,1.08,4.11,2.2,6.1,3.33a1.29,1.29,0,0,1-.63,2.41ZM130,30.57a1.29,1.29,0,0,1-.6-2.43c2-1.08,4.1-2.14,6.16-3.15a1.29,1.29,0,1,1,1.14,2.31c-2,1-4.09,2.05-6.09,3.12A1.34,1.34,0,0,1,130,30.57ZM349.35,27.2a1.31,1.31,0,0,1-.57-.13c-2-1-4.13-2-6.21-2.95a1.29,1.29,0,1,1,1.07-2.34c2.1,1,4.21,2,6.28,3a1.29,1.29,0,0,1-.57,2.45Zm-207-2.73a1.29,1.29,0,0,1-.53-2.46c2.08-1,4.21-1.89,6.32-2.79a1.29,1.29,0,0,1,1,2.37c-2.09.89-4.2,1.82-6.26,2.77A1.27,1.27,0,0,1,142.3,24.47Zm194.46-3a1.31,1.31,0,0,1-.5-.1c-2.1-.89-4.24-1.75-6.38-2.58a1.29,1.29,0,0,1,.94-2.41c2.15.84,4.32,1.72,6.45,2.61a1.29,1.29,0,0,1,.68,1.69A1.27,1.27,0,0,1,336.76,21.46ZM155,19.1a1.29,1.29,0,0,1-.48-2.49c2.15-.84,4.33-1.66,6.5-2.44a1.29,1.29,0,1,1,.87,2.43c-2.14.77-4.3,1.58-6.43,2.41A1.25,1.25,0,0,1,155,19.1Zm168.89-2.64a1.31,1.31,0,0,1-.43-.08c-2.15-.76-4.34-1.51-6.52-2.21a1.29,1.29,0,0,1,.79-2.45c2.2.71,4.42,1.46,6.59,2.23a1.29,1.29,0,0,1-.43,2.51Zm-155.9-2a1.29,1.29,0,0,1-.4-2.51c2.19-.72,4.42-1.41,6.62-2.06a1.29,1.29,0,0,1,.73,2.48c-2.18.64-4.39,1.32-6.55,2A1.44,1.44,0,0,1,168,14.44Zm142.75-2.23a1.49,1.49,0,0,1-.36-.05c-2.18-.64-4.41-1.25-6.62-1.83a1.29,1.29,0,0,1,.65-2.5c2.24.59,4.49,1.21,6.69,1.85a1.29,1.29,0,0,1-.36,2.53ZM181.19,10.54A1.29,1.29,0,0,1,180.86,8c2.23-.59,4.5-1.15,6.74-1.67a1.29,1.29,0,1,1,.58,2.51c-2.21.51-4.46,1.07-6.66,1.65A1.24,1.24,0,0,1,181.19,10.54ZM297.36,8.73a.92.92,0,0,1-.29,0c-2.23-.51-4.49-1-6.71-1.44a1.29,1.29,0,1,1,.5-2.53c2.25.45,4.54.94,6.78,1.46a1.29,1.29,0,0,1-.28,2.55ZM194.63,7.41a1.29,1.29,0,0,1-.25-2.55c2.26-.46,4.55-.89,6.81-1.28a1.29,1.29,0,1,1,.44,2.54c-2.24.39-4.51.81-6.74,1.27ZM283.82,6a.75.75,0,0,1-.21,0c-2.25-.38-4.53-.73-6.79-1a1.29,1.29,0,0,1,.37-2.56c2.27.32,4.58.68,6.85,1.07A1.29,1.29,0,0,1,283.82,6Zm-75.59-1a1.29,1.29,0,0,1-.18-2.57c2.27-.33,4.59-.63,6.87-.89a1.29,1.29,0,0,1,1.43,1.13,1.28,1.28,0,0,1-1.13,1.43c-2.26.26-4.55.56-6.81.88Zm61.93-1H270c-2.26-.26-4.56-.48-6.83-.67A1.28,1.28,0,0,1,262,2,1.29,1.29,0,0,1,263.4.85c2.29.19,4.61.42,6.9.67A1.29,1.29,0,0,1,271.44,3,1.28,1.28,0,0,1,270.16,4.09Zm-48.22-.61a1.29,1.29,0,0,1-.11-2.57c2.28-.2,4.61-.37,6.92-.5A1.29,1.29,0,1,1,228.89,3c-2.28.14-4.58.3-6.84.5ZM256.41,3h-.07c-2.27-.13-4.58-.22-6.86-.28a1.29,1.29,0,0,1-1.25-1.33A1.28,1.28,0,0,1,249.55.09c2.31.06,4.64.15,6.93.28A1.29,1.29,0,0,1,256.41,3Zm-20.7-.26a1.31,1.31,0,0,1-1.29-1.26A1.29,1.29,0,0,1,235.68.11C238,0,240.31,0,242.61,0h0a1.29,1.29,0,0,1,0,2.58c-2.28,0-4.59,0-6.87.11Z"
                  style="fill:#fbb03b"/>
        </g>
    </g>
</svg>
